<svg width="199" height="58" viewBox="0 0 199 58" fill="none" xmlns="http://www.w3.org/2000/svg">
<rect width="199" height="58" rx="10" fill="#E3E3E3"/>
<path d="M36.2848 18.94V31.54C36.2848 32.8 36.5948 33.77 37.2148 34.45C37.8348 35.13 38.7448 35.47 39.9448 35.47C41.1448 35.47 42.0648 35.13 42.7048 34.45C43.3448 33.77 43.6648 32.8 43.6648 31.54V18.94H48.7948V31.51C48.7948 33.39 48.3948 34.98 47.5948 36.28C46.7948 37.58 45.7148 38.56 44.3548 39.22C43.0148 39.88 41.5148 40.21 39.8548 40.21C38.1948 40.21 36.7048 39.89 35.3848 39.25C34.0848 38.59 33.0548 37.61 32.2948 36.31C31.5348 34.99 31.1548 33.39 31.1548 31.51V18.94H36.2848ZM59.0271 26.05C59.6271 25.13 60.3771 24.41 61.2771 23.89C62.1771 23.35 63.1771 23.08 64.2771 23.08V28.51H62.8671C61.5871 28.51 60.6271 28.79 59.9871 29.35C59.3471 29.89 59.0271 30.85 59.0271 32.23V40H53.8971V23.26H59.0271V26.05ZM70.8091 21.52C69.9091 21.52 69.1691 21.26 68.5891 20.74C68.0291 20.2 67.7491 19.54 67.7491 18.76C67.7491 17.96 68.0291 17.3 68.5891 16.78C69.1691 16.24 69.9091 15.97 70.8091 15.97C71.6891 15.97 72.4091 16.24 72.9691 16.78C73.5491 17.3 73.8391 17.96 73.8391 18.76C73.8391 19.54 73.5491 20.2 72.9691 20.74C72.4091 21.26 71.6891 21.52 70.8091 21.52ZM73.3591 23.26V40H68.2291V23.26H73.3591ZM83.7068 23.05V27.31H90.5768V31.27H83.7068V35.89H91.4768V40H78.5768V18.94H91.4768V23.05H83.7068ZM103.837 35.2L107.467 23.26H112.927L106.987 40H100.657L94.7173 23.26H100.207L103.837 35.2ZM132.367 31.36C132.367 31.84 132.337 32.34 132.277 32.86H120.667C120.747 33.9 121.077 34.7 121.657 35.26C122.257 35.8 122.987 36.07 123.847 36.07C125.127 36.07 126.017 35.53 126.517 34.45H131.977C131.697 35.55 131.187 36.54 130.447 37.42C129.727 38.3 128.817 38.99 127.717 39.49C126.617 39.99 125.387 40.24 124.027 40.24C122.387 40.24 120.927 39.89 119.647 39.19C118.367 38.49 117.367 37.49 116.647 36.19C115.927 34.89 115.567 33.37 115.567 31.63C115.567 29.89 115.917 28.37 116.617 27.07C117.337 25.77 118.337 24.77 119.617 24.07C120.897 23.37 122.367 23.02 124.027 23.02C125.647 23.02 127.087 23.36 128.347 24.04C129.607 24.72 130.587 25.69 131.287 26.95C132.007 28.21 132.367 29.68 132.367 31.36ZM127.117 30.01C127.117 29.13 126.817 28.43 126.217 27.91C125.617 27.39 124.867 27.13 123.967 27.13C123.107 27.13 122.377 27.38 121.777 27.88C121.197 28.38 120.837 29.09 120.697 30.01H127.117ZM146.773 23.08C148.733 23.08 150.293 23.72 151.453 25C152.633 26.26 153.223 28 153.223 30.22V40H148.123V30.91C148.123 29.79 147.833 28.92 147.253 28.3C146.673 27.68 145.893 27.37 144.913 27.37C143.933 27.37 143.153 27.68 142.573 28.3C141.993 28.92 141.703 29.79 141.703 30.91V40H136.573V23.26H141.703V25.48C142.223 24.74 142.923 24.16 143.803 23.74C144.683 23.3 145.673 23.08 146.773 23.08ZM167.618 35.65V40H165.008C163.148 40 161.698 39.55 160.658 38.65C159.618 37.73 159.098 36.24 159.098 34.18V27.52H157.058V23.26H159.098V19.18H164.228V23.26H167.588V27.52H164.228V34.24C164.228 34.74 164.348 35.1 164.588 35.32C164.828 35.54 165.228 35.65 165.788 35.65H167.618Z" fill="#0F3460"/>
</svg>
