<svg width="58" height="58" viewBox="0 0 58 58" fill="none" xmlns="http://www.w3.org/2000/svg">
<rect width="58" height="58" rx="10" fill="#E3E3E3"/>
<path d="M16.9586 18.94V31.54C16.9586 32.8 17.2686 33.77 17.8886 34.45C18.5086 35.13 19.4186 35.47 20.6186 35.47C21.8186 35.47 22.7386 35.13 23.3786 34.45C24.0186 33.77 24.3386 32.8 24.3386 31.54V18.94H29.4686V31.51C29.4686 33.39 29.0686 34.98 28.2686 36.28C27.4686 37.58 26.3886 38.56 25.0286 39.22C23.6886 39.88 22.1886 40.21 20.5286 40.21C18.8686 40.21 17.3786 39.89 16.0586 39.25C14.7586 38.59 13.7286 37.61 12.9686 36.31C12.2086 34.99 11.8286 33.39 11.8286 31.51V18.94H16.9586ZM39.7009 23.05V27.31H46.5709V31.27H39.7009V35.89H47.4709V40H34.5709V18.94H47.4709V23.05H39.7009Z" fill="#0F3460"/>
</svg>
